<?xml version="1.0" encoding="UTF-8"?>
<svg version="1.1" xmlns="http://www.w3.org/2000/svg" width="512" height="512">
<path d="M0 0 C1.13648556 -0.00507454 2.27297112 -0.01014909 3.44389564 -0.0153774 C5.33271493 -0.01612404 5.33271493 -0.01612404 7.25969219 -0.01688576 C8.60254106 -0.02089909 9.94538871 -0.0253371 11.28823489 -0.03016531 C14.99097532 -0.04215087 18.69370271 -0.04778383 22.39645875 -0.05234647 C26.38497693 -0.05829499 30.37347947 -0.06990662 34.36198711 -0.08063698 C44.00011179 -0.10517698 53.63824165 -0.11978983 63.27638796 -0.13269705 C65.99727039 -0.13640761 68.71815231 -0.14038094 71.43903422 -0.14444971 C88.32507619 -0.16968322 105.21111894 -0.1917425 122.0971756 -0.20417786 C126.00980221 -0.20710769 129.9224288 -0.21006933 133.83505535 -0.21308327 C134.80755321 -0.21382932 135.78005107 -0.21457537 136.78201856 -0.21534403 C152.5439602 -0.22800385 168.30578919 -0.26123449 184.06767813 -0.3028851 C200.23937383 -0.34526939 216.41101179 -0.36886877 232.5827629 -0.37409842 C241.66699131 -0.37751637 250.75104363 -0.38931669 259.83521748 -0.42220116 C267.57002668 -0.45015465 275.30462373 -0.46122174 283.03947953 -0.4500057 C286.98752691 -0.44480704 290.93512967 -0.44778329 294.88311291 -0.47247124 C298.49618826 -0.49487681 302.10849737 -0.49429286 305.72158536 -0.47526737 C307.65045701 -0.47112085 309.57933267 -0.49167721 311.50809032 -0.51305425 C320.84111224 -0.42682914 320.84111224 -0.42682914 323.92436028 2.5500145 C326.85460325 6.87619383 326.82036631 10.05889425 326.81082916 15.16221142 C326.81318139 16.00551959 326.81553362 16.84882777 326.81795713 17.71769074 C326.82467196 20.57442232 326.82418817 23.43110868 326.82377911 26.28784752 C326.82707618 28.34428626 326.83080141 30.40072435 326.83492059 32.45716161 C326.84496638 38.13237614 326.84866151 43.8075801 326.8513099 49.48280227 C326.85520528 55.59403554 326.86478407 61.70526037 326.87352276 67.81648827 C326.89237261 81.88800483 326.90254603 95.95951946 326.91098344 110.0310451 C326.91518745 116.98137554 326.92040975 123.93170511 326.92566797 130.88203482 C326.94355883 154.66361422 326.95855615 178.44519386 326.96598816 202.22677898 C326.96646292 203.72022339 326.96693881 205.2136678 326.96741582 206.7071122 C326.9676522 207.44774167 326.96788857 208.18837114 326.96813211 208.95144392 C326.96933334 212.70397458 326.97054878 216.45650523 326.9717741 220.20903587 C326.97201425 220.95374281 326.9722544 221.69844975 326.97250183 222.46572356 C326.98039765 246.61983497 327.00383495 270.77389731 327.03633005 294.92798729 C327.07060578 320.45214929 327.09033717 345.97628256 327.0936324 371.50046796 C327.09404996 374.30087325 327.09452952 377.10127853 327.09505558 379.90168381 C327.09517877 380.59124578 327.09530196 381.28080776 327.09542889 381.99126555 C327.09776366 393.10169979 327.11343894 404.21207718 327.13389743 415.32249113 C327.15412458 426.48409608 327.1593133 437.64563356 327.15012679 448.80725972 C327.1455651 454.85743419 327.14757646 460.90742355 327.16688824 466.95757294 C327.18439953 472.49124237 327.18362072 478.02458997 327.16799095 483.55826225 C327.16559648 485.5650115 327.17003259 487.57178234 327.1818196 489.5784984 C327.19680689 492.2974936 327.18735789 495.01532891 327.17159271 497.73429394 C327.18692602 498.91458636 327.18692602 498.91458636 327.2025691 500.11872306 C327.15519917 503.83846897 326.80351846 505.93973943 324.77067155 509.09968442 C322.05140694 511.74527725 320.32264247 512.37538939 316.61410809 512.63701439 C307.50513224 512.43934439 300.30957651 503.09836834 294.11410809 497.13701439 C289.34534685 492.57369016 284.5381975 488.09484956 279.5498991 483.77178001 C276.79128813 481.36442187 274.1074867 478.88021017 271.42660809 476.38701439 C270.30045866 475.34388081 269.17415298 474.3009159 268.04770184 473.25810814 C267.20634686 472.47862816 267.20634686 472.47862816 266.3479948 471.68340111 C259.36024972 465.21825689 252.32416209 458.80789619 245.23910809 452.44951439 C241.85339265 449.39411265 238.49578898 446.30844455 235.13754559 443.22295189 C231.99993723 440.34278832 228.84639868 437.48169825 225.67660809 434.63701439 C221.46976481 430.86164222 217.29985956 427.0472099 213.13754559 423.22295189 C209.99993723 420.34278832 206.84639868 417.48169825 203.67660809 414.63701439 C199.46976481 410.86164222 195.29985956 407.0472099 191.13754559 403.22295189 C187.201019 399.60942236 183.23290998 396.03266576 179.25473309 392.46513939 C177.36080468 390.75486465 175.47574399 389.0372721 173.59848309 387.30888939 C173.07125652 386.82355736 172.54402996 386.33822533 172.00082684 385.83818626 C170.51135029 384.46513282 169.02361372 383.09019257 167.53598309 381.71513939 C164.64158763 379.10543857 161.68597716 376.61217594 158.67660809 374.13701439 C150.31930145 377.99703401 143.82067822 385.78309259 137.17196941 392.01640892 C133.42682758 395.52271793 129.6430904 398.96152092 125.75473309 402.30888939 C122.30992189 405.33928721 118.96132507 408.47395454 115.59628582 411.59233665 C111.49912458 415.38631152 107.36224326 419.13270928 103.20395184 422.85967064 C100.34578605 425.43511214 97.50950547 428.03387203 94.67660809 430.63701439 C90.22328191 434.72870646 85.7400092 438.78524415 81.23910809 442.82451439 C78.370604 445.41316442 75.52184158 448.02286585 72.67660809 450.63701439 C69.02731284 453.98992018 65.3649124 457.32699769 61.67660809 460.63701439 C55.96999114 465.76020723 50.32345455 470.94821378 44.67660809 476.13701439 C38.23036469 482.06036859 31.77322059 487.96919385 25.25082684 493.80888939 C23.3646482 495.51475049 21.49389105 497.23147113 19.63363934 498.96513939 C16.67560265 501.72091715 13.68716368 504.43863288 10.67660809 507.13701439 C10.01660809 507.73385033 9.35660809 508.33068626 8.67660809 508.94560814 C4.84852242 512.07365036 1.57899463 512.90002867 -3.23745441 512.63701439 C-6.64033813 511.82134189 -8.25974829 509.84554665 -10.32339191 507.13701439 C-11.90133384 503.98113055 -11.46410424 500.59541744 -11.45761299 497.13022804 C-11.45996522 496.28890784 -11.46231745 495.44758763 -11.46474096 494.58077288 C-11.47145575 491.73079398 -11.470972 488.88086042 -11.47056293 486.03087425 C-11.47386002 483.979273 -11.47758525 481.92767241 -11.48170441 479.87607265 C-11.49175021 474.2141903 -11.49544534 468.55231855 -11.49809372 462.89042854 C-11.50198913 456.7934912 -11.51156795 450.69656232 -11.52030659 444.59963036 C-11.53915679 430.56063031 -11.5493301 416.52163221 -11.55776727 402.48262308 C-11.56197141 395.54790791 -11.56719371 388.61319361 -11.5724518 381.67847918 C-11.59034312 357.94905925 -11.60534011 334.21963907 -11.61277199 310.49021339 C-11.61324675 309.00002068 -11.61372264 307.50982796 -11.61419965 306.01963525 C-11.61443603 305.2806196 -11.6146724 304.54160394 -11.61491594 303.78019388 C-11.61611716 300.0358528 -11.61733261 296.29151172 -11.61855793 292.54717064 C-11.61879808 291.8040893 -11.61903823 291.06100797 -11.61928566 290.29540902 C-11.62718058 266.19678914 -11.6506158 242.09821845 -11.68311387 217.99962005 C-11.71739473 192.53261705 -11.7371215 167.06564283 -11.74041623 141.59861636 C-11.74083378 138.80409096 -11.74131335 136.00956559 -11.74183941 133.21504021 C-11.7419626 132.52692881 -11.74208579 131.83881741 -11.74221272 131.12985414 C-11.7445469 120.04565265 -11.76021901 108.96150818 -11.78068126 97.87732702 C-11.80091512 86.74034931 -11.80609412 75.60343921 -11.79691062 64.46644023 C-11.79235087 58.43031854 -11.79434918 52.39438241 -11.81367207 46.3582859 C-11.83119709 40.83628332 -11.83039314 35.31460312 -11.81477477 29.79259762 C-11.81238242 27.79121411 -11.81680573 25.7898089 -11.82860342 23.78845873 C-11.84361642 21.07429834 -11.83412361 18.361296 -11.81837654 15.6471653 C-11.82859875 14.86453505 -11.83882096 14.08190479 -11.84935293 13.27555847 C-11.78346069 8.09553964 -10.61809378 5.118567 -7.32339191 1.13701439 C-4.74236626 -0.15349844 -2.89162379 0.00682921 0 0 Z M153.24692059 78.52373314 C149.63129682 82.19980046 147.74923169 86.32247243 145.55160809 90.94951439 C145.08005291 91.91711693 144.60849773 92.88471947 144.12265301 93.8816433 C142.62691475 96.96036088 141.14990408 100.04750155 139.67660809 103.13701439 C138.71712448 105.13838926 137.75749128 107.13969242 136.79770184 109.14092064 C135.43730885 111.98061883 134.07935419 114.82126295 132.73276043 117.66753197 C131.87630155 119.47489007 130.98245576 121.26488505 130.05697918 123.0378933 C128.92956559 125.56909035 128.33663046 127.52557076 127.76889324 130.18535423 C126.44787724 135.14115654 124.84924663 138.96700665 120.67660809 142.13701439 C110.64576952 145.99059903 99.45130272 146.65864598 88.83822918 147.75469017 C84.82259629 148.18316527 80.81653301 148.686697 76.80942059 149.18779564 C72.30629299 149.75072784 67.804145 150.30747912 63.29226971 150.79616356 C62.60795879 150.87244987 61.92364788 150.94873619 61.21860027 151.02733421 C59.37475077 151.23162954 57.5300681 151.42836569 55.68533611 151.6245327 C52.89120124 152.10046238 51.02190677 152.57267212 48.67660809 154.13701439 C47.08508001 156.91144916 47.08508001 156.91144916 46.67660809 160.13701439 C48.95915915 165.16863938 53.03674381 168.76844112 56.90707684 172.59795189 C57.61632809 173.30674492 58.32557934 174.01553795 59.05632305 174.74580956 C60.55604705 176.24251844 62.05819478 177.73680212 63.56259441 179.22881126 C65.84395588 181.49202251 68.11731942 183.76302614 70.38949871 186.03545189 C71.8532227 187.49425568 73.31740115 188.95260364 74.78207684 190.41045189 C75.45321011 191.08047234 76.12434338 191.75049278 76.81581402 192.44081688 C84.2884733 199.89125955 84.2884733 199.89125955 92.53859234 206.43739891 C94.44387348 207.92151624 95.56006711 208.98510862 96.67660809 211.13701439 C96.96445276 219.68000535 95.10741414 228.40609396 93.61020184 236.78935814 C93.41185238 237.93312416 93.21350292 239.07689018 93.00914288 240.25531578 C92.38320408 243.86274494 91.74951112 247.46874112 91.11410809 251.07451439 C90.47552736 254.70534321 89.83882696 258.3364474 89.20836163 261.96869469 C88.81812319 264.21663969 88.4232669 266.46378936 88.02315044 268.70999718 C85.97046075 277.77103283 85.97046075 277.77103283 88.73910809 286.07451439 C91.49088528 288.43432659 91.49088528 288.43432659 94.70004559 288.09795189 C99.99931411 287.13614815 104.55545645 284.36741907 109.23910809 281.82451439 C110.23982342 281.29197044 111.24053875 280.7594265 112.27157879 280.21074486 C119.32860644 276.44308941 126.34474527 272.59925797 133.36410809 268.76201439 C136.02427944 267.31045916 138.6847169 265.85940307 141.34604168 264.40996361 C142.79916704 263.61627037 144.25036702 262.81902918 145.69858074 262.01640892 C147.34957503 261.10384153 149.01252207 260.21298448 150.67660809 259.32451439 C151.52223309 258.86431908 152.36785809 258.40412376 153.23910809 257.92998314 C157.28481745 256.6138309 160.6534496 257.69715934 164.48715496 259.34526634 C165.44686199 259.85017601 166.40656902 260.35508568 167.39535809 260.87529564 C168.48227947 261.44264427 169.56920086 262.0099929 170.68905926 262.59453392 C171.83995037 263.20667747 172.99084148 263.81882103 174.17660809 264.44951439 C175.37854692 265.08141583 176.58078037 265.71275719 177.78329754 266.34355736 C186.41052252 270.88181353 194.98593494 275.51767342 203.52035809 280.22807884 C213.55157927 286.6609556 213.55157927 286.6609556 224.67660809 288.13701439 C227.385633 286.48722207 227.385633 286.48722207 228.67660809 283.13701439 C228.69762994 274.99675742 227.06685211 266.85287328 225.61020184 258.87138939 C225.20325423 256.57712682 224.79635459 254.28285573 224.38949871 251.98857689 C223.7506366 248.42473567 223.10947424 244.86131936 222.46689129 241.2981472 C221.84227488 237.82355462 221.22592613 234.34756697 220.61020184 230.87138939 C220.41647488 229.8128878 220.22274792 228.75438622 220.02315044 227.66380882 C217.43033717 212.98622656 217.43033717 212.98622656 220.36410809 208.63310814 C221.12723309 207.9537722 221.89035809 207.27443626 222.67660809 206.57451439 C223.79035809 205.5516433 223.79035809 205.5516433 224.92660809 204.50810814 C226.42443942 203.21665413 227.92265794 201.92564642 229.42283916 200.63692284 C236.54062733 194.4739797 243.21447024 187.89415104 249.89706707 181.26665306 C251.38233627 179.79806677 252.87296671 178.33488402 254.36874676 176.87700462 C256.54477965 174.75562801 258.70399739 172.61836338 260.86020184 170.47685814 C261.86475666 169.50630737 261.86475666 169.50630737 262.88960552 168.51614952 C265.6539371 165.7390026 267.46679331 163.67000926 268.91513348 159.99077415 C268.89482415 156.9851011 268.89482415 156.9851011 266.84579754 154.3816433 C262.63149771 151.39679832 259.01852906 150.88068951 253.96957684 150.22295189 C253.01917019 150.08253975 252.06876354 149.94212761 251.08955669 149.79746056 C248.01692213 149.34878941 244.94106185 148.92993543 241.86410809 148.51201439 C239.76670859 148.21211552 237.66953949 147.91060088 235.57260418 147.60747337 C229.61133335 146.75313613 223.64544868 145.93659307 217.67660809 145.13701439 C216.89694683 145.03241905 216.11728558 144.92782372 215.31399822 144.82005882 C208.10900962 143.85793436 200.89964447 142.9525185 193.67660809 142.13701439 C193.41484783 141.29203392 193.15308758 140.44705345 192.8833952 139.57646751 C191.61205712 135.95303827 190.05627568 132.54647136 188.36801434 129.10576439 C188.04528545 128.44062325 187.72255657 127.7754821 187.39004803 127.09018517 C186.34386138 124.93708925 185.29202234 122.78682754 184.23910809 120.63701439 C183.51404508 119.15306912 182.7890291 117.66910087 182.06405926 116.18511009 C180.97319312 113.95361229 179.88145533 111.72255646 178.78752422 109.49255943 C176.62057652 105.07506288 174.47630565 100.64770373 172.34848309 96.21123314 C171.3959285 94.24871659 170.44284807 92.28645513 169.48910809 90.32451439 C169.06895428 89.43763939 168.64880047 88.55076439 168.21591473 87.63701439 C166.00385423 83.1350575 164.15882072 79.74627693 159.67660809 77.13701439 C155.78934778 76.80655588 155.78934778 76.80655588 153.24692059 78.52373314 Z " fill="#000000" transform="translate(98.32339191436768,-0.13701438903808594)"/>
</svg>
